<?xml version="1.0" encoding="UTF-8"?>
<svg width="120px" height="90px" viewBox="0 0 427 325" version="1.1" xmlns="http://www.w3.org/2000/svg" xmlns:xlink="http://www.w3.org/1999/xlink">
    <g stroke="none" stroke-width="1" fill="none" fill-rule="evenodd" fill-opacity="0.3">
        <path d="M226.281,130.064584 C225.955,140.180242 220.25,148.17409 213.535,147.918737 C206.821,147.667712 201.639,139.264867 201.966,129.151373 C202.291,119.033551 207.999,111.040785 214.713,111.293974 C221.428,111.544999 226.607,119.950008 226.281,130.064584 L226.281,130.064584 Z" id="Right-eye" fill="#3BB8AD"></path>
        <ellipse id="Left-eye" fill="#3BB8AD" cx="290.662873" cy="119.738276" rx="12.1655003" ry="18.32666"></ellipse>
        <path d="M117.419,311.630312 C114.092,304.981395 115.175,297.311067 117.953,290.744383 C108.583,284.041367 102.725,275.979353 99.602,270.759764 C34.132,274.588977 11.199,253.299461 3.537,234.485571 C-3.693,216.730963 1.451,196.340592 10.616,186.785412 C24.436,171.537808 43.047,168.644529 64.446,178.415027 C69.031,180.508706 73.258,182.973511 76.926,185.399365 C76.846,148.155696 85.624,122.552229 89.488,113.095511 C86.259,105.244488 79.279,87.709527 77.778,79.3185839 C77.272,76.4880607 78.101,73.5709771 79.99,71.5378911 C161.037,-15.7019496 270.915,-0.882819022 282.8,4.26211131 C284.638,5.05738445 286.137,6.56137039 287.009,8.48192798 C287.168,8.82816935 303.769,44.3265656 329.398,40.5763388 C337.762,37.3617041 340.959,33.8538462 338.022,22.7373343 C336.808,18.1409801 339.267,13.3498652 343.515,12.036312 C347.763,10.7238408 352.192,13.3834073 353.406,17.9808435 C358.513,37.3162599 351.955,50.513466 333.914,57.2078265 C333.477,57.3690451 333.029,57.4902296 332.574,57.5681339 C330.096,57.9944436 327.685,58.1935324 325.349,58.1946144 C297.607,58.1967784 280.005,30.0787333 274.488,19.7769706 C266.523,18.1626202 241.965,14.9999217 209.844,20.2963327 C178.64,25.441263 133.692,40.0677968 94.579,80.3313399 C96.963,88.3154494 102.221,101.656562 105.575,109.583325 C106.617,112.044885 106.534,114.89272 105.351,117.27854 C105.204,117.580419 89.561,150.27426 93.604,202.181251 C93.88,205.722651 92.127,209.086603 89.184,210.664165 C86.241,212.243891 82.706,211.714791 80.269,209.331136 C80.181,209.246739 70.44,199.857106 57.906,194.219864 C42.757,187.405401 31.003,188.964569 21.97,198.982847 C18.162,202.90944 13.249,215.397934 18.179,227.504479 C22.915,239.133861 40.298,257.933686 103.502,253.152309 C106.845,252.907776 109.968,254.920304 111.347,258.217171 C111.386,258.305895 117.476,272.065743 132.548,279.831288 C134.772,280.977131 136.383,283.166025 136.918,285.767164 C137.452,288.368302 136.85,291.091707 135.284,293.147515 C132.669,296.58396 130.718,301.846829 131.489,303.385439 C132.287,304.980313 138.787,308.574732 159.024,306.18242 C160.86,305.789653 175.107,302.509016 182.974,293.761011 C185.04,291.459588 188.116,290.586411 190.958,291.489884 C191.476,291.653267 243.881,307.798935 286.148,288.987208 C288.885,287.768871 292.022,288.286069 294.299,290.329976 C308.27,302.869323 330.501,304.982477 336.899,302.20389 C338.878,296.533106 330.292,288.515454 330.198,288.431058 C328.058,286.522403 326.971,283.539317 327.347,280.565969 C327.723,277.592621 329.481,275.032599 332.016,273.816426 C333.161,273.244046 361.411,258.585052 369.701,206.729997 C370.329,202.797994 373.36,199.840876 377.04,199.569293 C390.679,198.563029 400.68,194.370262 405.96,187.445435 C410.788,181.111382 410.774,173.914972 410.469,170.733879 C409.716,167.382912 408.411,166.628755 407.972,166.376648 C405.109,164.722263 399.716,166.093163 397.554,167.017194 C397.267,167.139461 396.368,167.426192 396.368,167.426192 C382.005,171.597318 371.97,164.017878 366.532,144.885879 L365.44,141.573864 C359.163,122.497046 353.741,106.022449 337.495,87.3470556 C334.468,83.8662478 334.62,78.3880602 337.838,75.1117512 C341.054,71.8343603 346.118,71.9999069 349.146,75.4817967 C367.689,96.7972809 373.919,115.725864 380.514,135.766747 L381.66,139.244309 C384.344,148.748634 387.144,150.677848 387.942,151.052221 C389.012,151.554271 390.339,151.250228 392.086,150.744932 C394.89,149.608828 406.028,145.706038 415.403,151.044647 C419.26,153.241116 424.262,157.867766 426.183,167.433766 C426.897,173.372887 427.299,186.660982 418.301,198.463485 C410.991,208.051124 399.572,213.995656 384.302,216.180223 C376.63,254.724461 358.653,274.608453 347.626,283.534989 C352.974,291.688973 356.436,303.017558 349.176,313.667726 C348.71,314.35047 348.155,314.955311 347.526,315.463853 C335.54,325.151037 306.394,320.538453 287.936,306.801327 C248.534,322.327006 204.762,313.020687 190.864,309.359185 C178.824,319.918464 162.345,323.134181 161.579,323.27917 C156.582,323.89483 151.568,324.346026 146.552,324.346026 C134.525,324.346026 122.487,321.75679 117.419,311.630312 Z" id="Body" fill="#3BB8AD"></path>
    </g>
</svg>
